<svg xmlns="http://www.w3.org/2000/svg" viewBox="0 0 24 24" fill="#5865F2" stroke="none">
  <path d="M9 7.33C7.63 7.33 6.52 8.45 6.52 9.83C6.52 11.21 7.63 12.33 9 12.33C10.36 12.33 11.48 11.21 11.48 9.83C11.48 8.45 10.37 7.33 9 7.33Z"/>
  <path d="M14.99 7.33C13.62 7.33 12.51 8.45 12.51 9.83C12.51 11.21 13.62 12.33 14.99 12.33C16.35 12.33 17.47 11.21 17.47 9.83C17.47 8.45 16.36 7.33 14.99 7.33Z"/>
  <path d="M19.69 3H4.31C3.59 3 3 3.59 3 4.31V17.12C3 17.84 3.59 18.43 4.31 18.43H17.1L16.5 16.61L17.99 17.95L19.39 19.2L21.99 21.5V4.31C22 3.59 21.41 3 19.69 3ZM14.89 14.08C14.89 14.08 14.43 13.53 14.04 13.05C15.73 12.58 16.35 11.54 16.35 11.54C15.83 11.89 15.34 12.13 14.89 12.3C14.26 12.56 13.65 12.74 13.06 12.85C11.84 13.1 10.72 13.03 9.76 12.85C9.04 12.7 8.41 12.49 7.87 12.3C7.57 12.19 7.24 12.05 6.91 11.89C6.87 11.86 6.83 11.84 6.79 11.82C6.77 11.81 6.75 11.8 6.73 11.79C6.52 11.68 6.41 11.6 6.41 11.6C6.41 11.6 7.01 12.62 8.65 13.1C8.26 13.58 7.79 14.15 7.79 14.15C5.15 14.05 4.21 12.53 4.21 12.53C4.21 9.11 5.74 6.33 5.74 6.33C7.28 5.16 8.75 5.19 8.75 5.19L8.88 5.35C6.71 6.03 5.71 7.06 5.71 7.06C5.71 7.06 5.95 6.93 6.35 6.74C7.59 6.19 8.73 6.03 9.12 5.99C9.19 5.98 9.26 5.97 9.33 5.97C10.05 5.88 10.87 5.86 11.72 5.97C12.82 6.12 14 6.45 15.2 7.06C15.2 7.06 14.24 6.07 12.18 5.39L12.36 5.19C12.36 5.19 13.83 5.16 15.37 6.33C15.37 6.33 16.9 9.11 16.9 12.53C16.9 12.52 15.95 14.04 13.32 14.15L14.89 14.08Z"/>
</svg>